<svg id="Layer_1" data-name="Layer 1" xmlns="http://www.w3.org/2000/svg" viewBox="0 0 350 250"><defs><style>.cls-1{fill:#53230e;}.cls-2{font-size:45.82px;}.cls-2,.cls-3,.cls-4,.cls-5{fill:#010101;}.cls-2,.cls-3,.cls-4{font-family:BerlinSansFBDemi-Bold, Berlin Sans FB Demi;font-weight:700;}.cls-3{font-size:89.95px;letter-spacing:0.05em;}.cls-4{font-size:53.97px;}.cls-5{font-size:20.99px;font-family:BirchStd, Birch Std;letter-spacing:0.2em;}</style></defs><title>logo</title><path class="cls-1" d="M196.36,56.69c.13.25.23.72-1,2.7a18.77,18.77,0,0,1-4.72,5.45,23.51,23.51,0,0,1-2.08,1.44c-1.33.84-1.69.91-2.82,1.72-.69.49-1.27,1-1.6,1.25s-.83.7-1.41,1.26A19.2,19.2,0,0,0,181.39,72a21.4,21.4,0,0,0-1.67,2.29,10.91,10.91,0,0,0-1,1.81c-.55,1.28-.46,2-.78,2.05s-1.06-1.31-1.32-2.16a8.09,8.09,0,0,1-.33-2.19,11,11,0,0,1,.06-1.89,11.28,11.28,0,0,1,.33-1.74,13.23,13.23,0,0,1,.59-1.74,24,24,0,0,1,1.27-2.82,18.75,18.75,0,0,1,2-3A19.52,19.52,0,0,1,183.17,60a17.85,17.85,0,0,1,3.41-2.46,15.13,15.13,0,0,1,3.29-1.28,14.69,14.69,0,0,1,3-.43,6.13,6.13,0,0,1,1.84.11C195.43,56.06,196.1,56.21,196.36,56.69Z"/><path class="cls-1" d="M178.94,79.15c-.13-.25-.23-.72.95-2.7a18.37,18.37,0,0,1,1.82-2.64,19.22,19.22,0,0,1,2.9-2.81,20.88,20.88,0,0,1,2.08-1.44c1.33-.84,1.69-.91,2.81-1.72.7-.49,1.27-1,1.6-1.25s.84-.7,1.42-1.26c.75-.73,1.26-1.34,1.39-1.48a20.46,20.46,0,0,0,1.66-2.3,11.93,11.93,0,0,0,1-1.81c.54-1.28.46-2,.78-2.05s1.05,1.31,1.32,2.16A8.5,8.5,0,0,1,199,62a11,11,0,0,1-.06,1.89,11.28,11.28,0,0,1-.33,1.74,13.54,13.54,0,0,1-.6,1.74,24,24,0,0,1-1.26,2.82,18.75,18.75,0,0,1-2,3,19.52,19.52,0,0,1-2.62,2.63,17.85,17.85,0,0,1-3.41,2.46,15.13,15.13,0,0,1-3.29,1.28,14.68,14.68,0,0,1-3,.43,6.08,6.08,0,0,1-1.83-.11C179.87,79.78,179.2,79.63,178.94,79.15Z"/><path class="cls-1" d="M171.57,48.79c.21.18.48.58.16,2.92a19.08,19.08,0,0,1-.65,3.2,20.18,20.18,0,0,1-1.54,3.79,24.15,24.15,0,0,1-1.34,2.18c-.88,1.31-1.18,1.53-1.89,2.73-.44.74-.78,1.42-1,1.81s-.49,1-.8,1.74c-.4,1-.64,1.77-.69,2a21.24,21.24,0,0,0-.64,2.82,12.31,12.31,0,0,0-.25,2.12c0,1.42.35,2.08.07,2.24s-1.45-.82-2-1.52a8.8,8.8,0,0,1-1.12-1.94,11.33,11.33,0,0,1-.66-1.8,12.7,12.7,0,0,1-.36-1.77,14.52,14.52,0,0,1-.12-1.88,26.77,26.77,0,0,1,.07-3.15,20.42,20.42,0,0,1,.7-3.66,19.84,19.84,0,0,1,1.38-3.51,17.93,17.93,0,0,1,2.14-3.66,14.69,14.69,0,0,1,2.48-2.5,14.33,14.33,0,0,1,2.56-1.59,5.51,5.51,0,0,1,1.69-.62C170.49,48.56,171.16,48.44,171.57,48.79Z"/><path class="cls-1" d="M164.34,76.82c-.21-.17-.48-.58-.16-2.91a19,19,0,0,1,.65-3.21,20.18,20.18,0,0,1,1.54-3.79,24.15,24.15,0,0,1,1.34-2.18c.88-1.31,1.18-1.52,1.89-2.72.44-.75.78-1.42,1-1.81s.49-1,.8-1.75a20.37,20.37,0,0,0,.69-2,20.9,20.9,0,0,0,.64-2.82,12.22,12.22,0,0,0,.25-2.11c0-1.43-.35-2.09-.07-2.24s1.45.81,2,1.52A8.75,8.75,0,0,1,176,52.78a11.33,11.33,0,0,1,.66,1.8,13,13,0,0,1,.36,1.78,14.27,14.27,0,0,1,.12,1.88,26.83,26.83,0,0,1-.07,3.15,20.58,20.58,0,0,1-.7,3.66A20.16,20.16,0,0,1,175,68.56a17.88,17.88,0,0,1-2.14,3.65,15.31,15.31,0,0,1-2.48,2.51,14.19,14.19,0,0,1-2.56,1.58,5.54,5.54,0,0,1-1.69.63C165.42,77.05,164.75,77.17,164.34,76.82Z"/><path class="cls-1" d="M177.63,82.34c0,.27-.1.73-2,1.92a18.66,18.66,0,0,1-2.83,1.47,19.71,19.71,0,0,1-3.89,1.14,24.71,24.71,0,0,1-2.54.31c-1.59.13-1.95,0-3.34.22-.86.11-1.59.27-2,.36s-1.08.23-1.85.46c-1,.3-1.76.59-1.93.66a19.91,19.91,0,0,0-2.54,1.25,12.66,12.66,0,0,0-1.74,1.1c-1.06.88-1.3,1.56-1.61,1.44s-.4-1.62-.27-2.48a7.81,7.81,0,0,1,.65-2.06,10.93,10.93,0,0,1,.88-1.62,10.22,10.22,0,0,1,1.06-1.37,13.87,13.87,0,0,1,1.31-1.25A23.56,23.56,0,0,1,157.32,82a18.38,18.38,0,0,1,3.2-1.72,20.15,20.15,0,0,1,3.56-1.09,18.21,18.21,0,0,1,4.2-.6,16.71,16.71,0,0,1,3.59.37,16.94,16.94,0,0,1,2.95,1,6.65,6.65,0,0,1,1.64.92C177.05,81.36,177.6,81.8,177.63,82.34Z"/><path class="cls-1" d="M151.81,94c0-.28.1-.73,2.05-1.92a18.66,18.66,0,0,1,2.83-1.47,19.71,19.71,0,0,1,3.89-1.14,22.18,22.18,0,0,1,2.54-.31c1.59-.13,1.95,0,3.34-.22.85-.12,1.59-.27,2-.37s1.08-.23,1.85-.46c1-.29,1.75-.59,1.93-.66a20.19,20.19,0,0,0,2.54-1.24,11.66,11.66,0,0,0,1.74-1.11c1.06-.88,1.3-1.55,1.61-1.44s.4,1.62.27,2.49a7.81,7.81,0,0,1-.65,2.06,11.46,11.46,0,0,1-.88,1.62,11.77,11.77,0,0,1-1.06,1.37,13.87,13.87,0,0,1-1.31,1.25,24.73,24.73,0,0,1-2.39,1.88,19.25,19.25,0,0,1-3.2,1.71,20.32,20.32,0,0,1-3.56,1.1,17.71,17.71,0,0,1-4.2.59,15.46,15.46,0,0,1-3.59-.37,16.22,16.22,0,0,1-2.95-1,6.81,6.81,0,0,1-1.64-.93C152.39,95,151.84,94.54,151.81,94Z"/><text class="cls-2" transform="translate(94.42 78.41) rotate(-44.21) scale(1.05 1)">M</text><text class="cls-2" transform="translate(124.82 50.34) rotate(-20.89) scale(1.05 1)">A</text><text class="cls-2" transform="matrix(1.05, -0.07, 0.06, 1, 158.86, 38.88)">S</text><text class="cls-2" transform="translate(181.7 37.46) rotate(11.28) scale(1.05 1)">T</text><text class="cls-2" transform="translate(209.14 43.18) rotate(28.56) scale(1.05 1)">E</text><text class="cls-2" transform="matrix(0.71, 0.78, -0.74, 0.67, 235.18, 57.46)">R</text><text class="cls-3" transform="translate(0.58 167.65)">COFFEE</text><text class="cls-4" transform="translate(92.53 218.28)">BEANS</text><text class="cls-5" transform="translate(128.59 245.18)">SINCE 2016</text></svg>